#!OML:ASF H:\Dans Jumps\Project 1\Capture day 1\Session 1\subject.ASF
:FULLY-SPECIFIED
:DEGREES
314
root 0.222372 15.428 4.43251 -2.17013 1.23818 -1.31601
lowerback 13.5356 0.250264 -1.15133
upperback 5.30677 0.254394 2.13809
thorax -2.02058 0.0974343 2.84384
lowerneck -13.4194 -0.605012 -2.00174
upperneck 28.7127 -0.998284 2.1997
head 11.5947 -0.386929 1.02229
rclavicle -4.37326e-015 -9.54166e-015
rhumerus -28.1947 -11.9618 -76.8792
rradius 28.9005
rwrist 38.9915
rhand -20.2766 -29.9452
rfingers 7.12502
rthumb 6.07274 -59.8382
lclavicle -4.37326e-015 -9.54166e-015
lhumerus -28.1416 2.25654 79.7325
lradius 18.6649
lwrist 16.4055
lhand -24.9985 -8.17716
lfingers 7.12502
lthumb 1.51301 21.7972
rfemur -37.3587 -6.7868 19.8941
rtibia 66.8089
rfoot -23.1731 -0.986133
rtoes -0.726171
lfemur -37.6907 5.58284 -16.8289
ltibia 63.979
lfoot -19.1486 7.19737
ltoes -16.5668
315
root 0.238542 15.4195 4.52971 -1.93539 1.05092 -1.31912
lowerback 13.2424 0.213831 -1.06011
upperback 5.20938 0.216863 2.0816
thorax -1.96253 0.0802836 2.73746
lowerneck -13.3717 -0.575775 -1.88695
upperneck 28.9592 -0.975568 2.14168
head 11.6796 -0.372321 0.986159
rclavicle -1.59028e-015 -7.95139e-016
rhumerus -27.3007 -10.7932 -77.5797
rradius 29.3664
rwrist 38.7852
rhand -20.3694 -29.8834
rfingers 7.12502
rthumb 5.98315 -59.779
lclavicle -1.59028e-015 -7.95139e-016
lhumerus -27.6027 1.27616 80.6507
lradius 19.0773
lwrist 15.4715
lhand -25.0384 -7.85674
lfingers 7.12502
lthumb 1.47446 22.1179
rfemur -37.3749 -6.74716 19.8918
rtibia 67.087
rfoot -23.5439 -1.15908
rtoes -1.04426
lfemur -37.7117 5.93564 -16.9063
ltibia 64.3263
lfoot -19.4961 7.48925
ltoes -16.6923
316
root 0.254053 15.4238 4.62037 -1.51287 0.769044 -1.17336
lowerback 12.8033 0.209818 -1.10768
upperback 5.08511 0.203566 1.96412
thorax -1.85496 0.0740515 2.64186
lowerneck -13.3172 -0.529246 -1.76851
upperneck 29.1549 -0.925291 2.07422
head 11.7429 -0.346196 0.949111
rclavicle 5.76476e-015 -5.56597e-015
rhumerus -26.4052 -9.97209 -78.1774
rradius 29.7714
rwrist 38.7369
rhand -20.465 -29.8559
rfingers 7.12502
rthumb 5.89093 -59.754
lclavicle 5.76476e-015 -5.56597e-015
lhumerus -27.0488 0.85097 81.2315
lradius 19.4132
lwrist 14.3977
lhand -25.2671 -7.71525
lfingers 7.12502
lthumb 1.25365 22.2608
rfemur -37.5826 -6.58515 19.7459
rtibia 67.2421
rfoot -23.8153 -1.27137
rtoes -1.27893
lfemur -37.8398 6.30724 -17.151
ltibia 64.4841
lfoot -19.7658 7.72094
ltoes -16.5679
317
root 0.268696 15.4462 4.70434 -1.02169 0.421173 -0.949546
lowerback 12.3282 0.224869 -1.23021
upperback 4.9686 0.206648 1.81072
thorax -1.72 0.0751446 2.5491
lowerneck -13.2606 -0.470152 -1.65113
upperneck 29.2806 -0.852036 1.99565
head 11.778 -0.311357 0.910568
rclavicle 2.98177e-015 1.47101e-014
rhumerus -25.5245 -9.54216 -78.6802
rradius 30.1544
rwrist 38.6486
rhand -20.6128 -29.8651
rfingers 7.12502
rthumb 5.74819 -59.7672
lclavicle 2.98177e-015 1.47101e-014
lhumerus -26.4941 0.877883 81.5565
lradius 19.7425
lwrist 13.6219
lhand -25.6121 -7.71693
lfingers 7.12502
lthumb 0.920382 22.2608
rfemur -37.7965 -6.35262 19.5227
rtibia 67.198
rfoot -23.9644 -1.30791
rtoes -1.37611
lfemur -37.9151 6.6834 -17.4805
ltibia 64.3945
lfoot -19.9375 7.89631
ltoes -16.3338
318
root 0.282409 15.4901 4.78221 -0.560652 0.0330251 -0.747994
lowerback 11.9164 0.245908 -1.33714
upperback 4.88004 0.220444 1.65633
thorax -1.58998 0.0814733 2.44571
lowerneck -13.2039 -0.402999 -1.53988
upperneck 29.3375 -0.762396 1.91063
head 11.7858 -0.270734 0.872282
rclavicle -1.09332e-015 6.75868e-015
rhumerus -24.6955 -9.45665 -79.1095
rradius 30.5583
rwrist 38.3757
rhand -20.828 -29.9119
rfingers 7.12502
rthumb 5.54043 -59.8195
lclavicle -1.09332e-015 6.75868e-015
lhumerus -25.9779 1.17046 81.7291
lradius 20.139
lwrist 13.4891
lhand -26.009 -7.91476
lfingers 7.12502
lthumb 0.537007 22.0643
rfemur -37.8609 -6.07401 19.3232
rtibia 66.888
rfoot -23.9622 -1.2847
rtoes -1.37502
lfemur -37.8199 7.05063 -17.7722
ltibia 64.0227
lfoot -19.9938 7.98848
ltoes -16.0447
319
root 0.295395 15.5561 4.85505 -0.164203 -0.350937 -0.619388
lowerback 11.6075 0.257827 -1.38781
upperback 4.81867 0.2292 1.52437
thorax -1.48664 0.085685 2.33521
lowerneck -13.1534 -0.332895 -1.44801
upperneck 29.3462 -0.664841 1.83306
head 11.7761 -0.227788 0.84077
rclavicle -1.39149e-015 6.36111e-015
rhumerus -23.9559 -9.59507 -79.4864
rradius 31.005
rwrist 37.9035
rhand -21.1301 -29.9779
rfingers 7.12502
rthumb 5.24877 -59.8929
lclavicle -1.39149e-015 6.36111e-015
lhumerus -25.534 1.52368 81.8438
lradius 20.6282
lwrist 14.1575
lhand -26.3807 -8.21285
lfingers 7.12502
lthumb 0.178041 21.7668
rfemur -37.7106 -5.7859 19.1949
rtibia 66.284
rfoot -23.7967 -1.21081
rtoes -1.32206
lfemur -37.5161 7.36863 -17.9655
ltibia 63.3647
lfoot -19.9263 7.9896
ltoes -15.7438
320
root 0.308073 15.6414 4.92418 0.179288 -0.688984 -0.560975
lowerback 11.3875 0.251391 -1.39024
upperback 4.77502 0.219339 1.42315
thorax -1.41196 0.0810237 2.23219
lowerneck -13.1103 -0.265495 -1.37846
upperneck 29.3227 -0.568626 1.76808
head 11.7557 -0.186293 0.817344
rclavicle -1.49089e-015 -1.05356e-014
rhumerus -23.3344 -9.81098 -79.8237
rradius 31.5041
rwrist 37.306
rhand -21.463 -30.0396
rfingers 7.12502
rthumb 4.92731 -59.9623
lclavicle -1.49089e-015 -1.05356e-014
lhumerus -25.1781 1.7908 81.9602
lradius 21.2045
lwrist 15.5459
lhand -26.622 -8.59551
lfingers 7.12502
lthumb -0.0550462 21.3842
rfemur -37.3582 -5.50477 19.126
rtibia 65.3995
rfoot -23.4749 -1.09264
rtoes -1.20148
lfemur -37.0319 7.59089 -18.0666
ltibia 62.4422
lfoot -19.7304 7.9144
ltoes -15.4482
321
root 0.320325 15.7421 4.99102 0.49852 -0.95679 -0.570026
lowerback 11.2154 0.224824 -1.35173
upperback 4.74157 0.187735 1.3576
thorax -1.35155 0.0657654 2.14593
lowerneck -13.0733 -0.204913 -1.32503
upperneck 29.2769 -0.481442 1.71567
head 11.7281 -0.148965 0.799958
rclavicle 1.2921e-015 1.98785e-016
rhumerus -22.8324 -9.9788 -80.1277
rradius 32.0291
rwrist 36.6963
rhand -21.7807 -30.0823
rfingers 7.12502
rthumb 4.62055 -60.0119
lclavicle 1.2921e-015 1.98785e-016
lhumerus -24.8975 1.895 82.1035
lradius 21.8171
lwrist 17.3743
lhand -26.6829 -9.01494
lfingers 7.12502
lthumb -0.113835 20.9648
rfemur -36.8484 -5.23043 19.1128
rtibia 64.2685
rfoot -23.022 -0.952381
rtoes -1.00202
lfemur -36.4194 7.68236 -18.0794
ltibia 61.2913
lfoot -19.4163 7.77888
ltoes -15.1592
322
root 0.332191 15.8544 5.05657 0.820991 -1.15241 -0.610214
lowerback 11.0577 0.183849 -1.31119
upperback 4.70725 0.137917 1.32186
thorax -1.29913 0.0413368 2.09165
lowerneck -13.0473 -0.152334 -1.29162
upperneck 29.2266 -0.407164 1.68585
head 11.7014 -0.116666 0.792642
rclavicle -2.08724e-015 -7.15625e-015
rhumerus -22.4551 -10.004 -80.3948
rradius 32.5555
rwrist 36.1811
rhand -22.0394 -30.084
rfingers 7.12502
rthumb 4.37073 -60.0189
lclavicle -2.08724e-015 -7.15625e-015
lhumerus -24.6869 1.81859 82.2802
lradius 22.4104
lwrist 19.2602
lhand -26.5648 -9.39061
lfingers 7.12502
lthumb 0.000217567 20.5891
rfemur -36.2313 -4.94976 19.1149
rtibia 62.9341
rfoot -22.4723 -0.809285
rtoes -0.685786
lfemur -35.7264 7.62913 -18.0478
ltibia 59.9498
lfoot -18.9981 7.60712
ltoes -14.8467
